<?xml version="1.0" standalone="no"?>
<!DOCTYPE svg PUBLIC "-//W3C//DTD SVG 20010904//EN"
 "http://www.w3.org/TR/2001/REC-SVG-20010904/DTD/svg10.dtd">
<svg version="1.0" xmlns="http://www.w3.org/2000/svg"
 width="443.000000pt" height="367.000000pt" viewBox="0 0 443.000000 367.000000"
 preserveAspectRatio="xMidYMid meet">

<g transform="translate(0.000000,367.000000) scale(0.100000,-0.100000)"
fill="#000000" stroke="none">
<path d="M1830 3456 c-69 -30 -181 -78 -250 -108 l-125 -54 -8 -624 c-5 -344
-10 -626 -11 -628 -2 -1 -152 -5 -334 -9 l-332 -6 -1 244 c-1 294 -13 696 -20
704 -6 5 -158 -56 -395 -160 l-131 -57 -6 -192 c-4 -105 -8 -519 -9 -921 l-2
-730 39 -19 c84 -40 473 -205 491 -208 18 -3 19 7 25 202 3 113 7 325 8 473
l1 267 340 0 340 0 2 -627 3 -628 255 -112 c140 -62 261 -112 269 -113 12 0
13 234 7 1623 -6 1523 -9 1738 -25 1736 -3 0 -62 -24 -131 -53z"/>
<path d="M2465 3483 c-14 -33 -24 -843 -24 -2090 -1 -684 3 -1243 7 -1243 19
0 528 216 550 233 9 7 12 136 12 582 l0 572 49 22 c47 23 50 23 105 7 56 -17
494 -201 508 -214 4 -4 12 -157 19 -340 7 -183 16 -331 19 -330 4 2 125 55
268 118 l262 115 -3 340 -2 340 -165 72 c-245 107 -340 153 -340 163 0 14 164
94 358 175 l162 69 0 336 0 337 -262 112 c-144 61 -267 110 -273 107 -17 -6
-25 -137 -25 -411 l0 -241 -27 -11 c-16 -6 -164 -70 -331 -142 -167 -72 -308
-129 -313 -126 -5 4 -9 257 -9 624 l0 619 -187 82 c-236 104 -322 140 -338
140 -7 0 -16 -8 -20 -17z"/>
</g>
</svg>
